PathFileType	4	(X/Y/Z)	c:/Users/goper/Files/vsCode/490R/osim_files/C07/C07_Slow_03.trc
DataRate	CameraRate	NumFrames	NumMarkers	Units                	OrigDataRate	OrigDataStartFrame	OrigNumFrames
250.00	250.00	10	36	mm	250.0	1465	2929
                Frame#	Time	LPSIS			LASIS			LTH1			LTH2			LTH3			LTH4			LLFE			LMFE			LSH1			LSH2			LSH3			LSH4			LLMAL			LMMAL			LCAL			LMTP5			LTOE			LMTP1			RPSIS			RASIS			RTH1			RTH2			RTH3			RTH4			RLFE			RMFE			RSH1			RSH2			RSH3			RSH4			RLMAL			RMMAL			RCAL			RMTP1			RTOE			RMTP5		
		X1	Y1	Z1	X2	Y2	Z2	X3	Y3	Z3	X4	Y4	Z4	X5	Y5	Z5	X6	Y6	Z6	X7	Y7	Z7	X8	Y8	Z8	X9	Y9	Z9	X10	Y10	Z10	X11	Y11	Z11	X12	Y12	Z12	X13	Y13	Z13	X14	Y14	Z14	X15	Y15	Z15	X16	Y16	Z16	X17	Y17	Z17	X18	Y18	Z18	X19	Y19	Z19	X20	Y20	Z20	X21	Y21	Z21	X22	Y22	Z22	X23	Y23	Z23	X24	Y24	Z24	X25	Y25	Z25	X26	Y26	Z26	X27	Y27	Z27	X28	Y28	Z28	X29	Y29	Z29	X30	Y30	Z30	X31	Y31	Z31	X32	Y32	Z32	X33	Y33	Z33	X34	Y34	Z34	X35	Y35	Z35	X36	Y36	Z36

1465	5.85600	-367.63690	1002.90112	290.22830	-529.03198	985.89264	381.67007	-502.37546	782.48090	429.12613	-532.58984	709.79205	434.61453	-566.01630	641.79700	429.56940	-607.35040	743.16449	423.47714	-579.92535	526.21906	410.73773	-600.53723	511.68222	294.49930	-454.17758	418.68228	411.62610	-412.77466	396.13794	392.81168	-486.31989	392.91962	407.31985	-453.38358	362.11285	399.01376	-290.18469	271.99683	348.34222	-334.70859	257.09384	283.45898	-219.09180	277.42319	285.58133	-294.05209	129.90244	391.28094	-343.68088	85.04961	348.81613	-322.62805	94.52414	292.50793	-380.31613	1016.58600	191.37952	-548.55811	990.81891	126.46800	-519.31592	836.73743	70.70296	-527.86127	757.97064	71.27316	-531.00684	675.33838	79.05766	-593.20087	763.24976	111.16208	-515.19855	499.46082	113.11081	-498.18439	507.82379	223.00414	-456.38699	316.59714	97.69149	-486.17569	266.08618	103.64692	-516.96838	319.12500	106.15581	-515.49243	274.63248	110.99461	-457.09158	96.60335	147.98956	-480.31393	107.19028	228.30586	-405.56396	47.57445	198.08003	-617.23175	41.50546	224.59950	-639.97748	54.05336	175.85098	-591.82184	41.15324	116.44684
1466	5.86000	-371.12723	1003.11328	290.01526	-532.77863	986.41382	381.26691	-507.01385	782.92621	428.93994	-537.98230	710.51965	434.42560	-571.94379	642.77930	429.36276	-612.26166	744.36108	423.21274	-586.56091	527.39618	410.38965	-607.04327	513.24408	294.28342	-461.65561	418.62939	411.33344	-420.39368	395.84515	392.73502	-494.00397	393.23569	406.91547	-461.30713	362.18439	398.80185	-298.71866	270.56586	348.19400	-343.33621	256.31726	283.46396	-227.20660	274.92273	285.80154	-304.85455	128.32257	390.98505	-355.10257	84.58477	348.26309	-334.01593	93.90824	292.26297	-383.91504	1016.76703	191.00316	-552.05389	990.68677	126.20712	-522.54169	836.65405	70.57726	-530.18524	757.96259	71.20659	-533.43915	675.26123	78.98519	-596.19678	762.93555	111.07266	-517.08453	499.50079	113.16154	-500.02405	507.82724	223.02458	-457.66000	316.92102	97.53694	-487.36871	266.06573	103.79617	-518.24316	319.05542	106.35411	-516.47424	274.62106	111.16943	-457.25732	96.71227	147.97986	-480.36484	107.17822	228.32486	-405.58331	47.57896	198.10455	-617.18695	41.44556	224.63443	-640.02069	54.01883	175.82614	-591.81854	41.11293	116.46048
1467	5.86400	-374.58157	1003.33734	289.65732	-536.24866	986.80206	380.97406	-511.65836	783.34235	428.74023	-543.53870	711.33600	434.25699	-577.46301	643.78827	429.23587	-617.31866	745.74249	422.84698	-593.10162	528.58417	410.04700	-613.44305	514.63116	294.10953	-469.04047	418.38174	411.18332	-427.92920	395.34201	392.68930	-501.56116	393.39114	406.74826	-469.16739	361.98141	398.55325	-307.60754	268.76309	348.24902	-352.03467	255.40587	283.35526	-235.54652	272.23764	286.01376	-315.89590	126.80758	390.66434	-366.60150	83.94513	347.73499	-345.30341	93.15279	291.98523	-387.32864	1016.91888	190.62674	-555.49817	990.64032	125.94974	-525.64655	836.56677	70.50493	-532.60748	757.98474	71.15427	-535.84045	675.18604	78.88894	-599.13867	762.65991	110.98658	-518.93842	499.41550	113.31075	-501.69241	507.83163	223.08522	-459.02713	317.01349	97.60685	-488.34067	266.03763	104.02847	-519.55292	318.81183	106.52710	-517.70984	274.50888	111.45018	-457.43661	96.80551	148.00978	-480.38907	107.17854	228.34119	-405.59457	47.62032	198.08363	-617.22498	41.40766	224.72054	-640.07001	54.01241	175.82562	-591.86554	41.10184	116.48154
1468	5.86800	-378.06921	1003.55188	289.37015	-539.63092	987.18048	380.70505	-516.35272	783.91736	428.56619	-549.09076	712.20905	434.09543	-583.22400	644.70160	429.03448	-622.39392	746.94116	422.58194	-599.54517	529.78229	409.71683	-619.54907	516.08051	293.90265	-476.58575	418.05853	411.08102	-435.49237	394.64334	392.54825	-509.39816	393.53317	406.53040	-477.00601	362.55087	397.93051	-316.16925	267.07553	348.02054	-360.85904	253.90512	282.55463	-243.72783	269.38782	286.25720	-326.97733	125.11198	390.40668	-378.43903	83.22089	347.30765	-356.98950	92.06602	290.88028	-390.91980	1017.02985	190.30882	-559.02826	990.65759	125.60366	-528.76819	836.47241	70.37234	-535.75104	757.72076	71.09741	-538.21234	675.11212	78.77159	-601.83789	762.36798	110.89845	-520.72760	499.30127	113.44247	-503.38086	507.91898	223.21346	-460.23380	317.21173	97.62803	-489.64258	266.03436	104.13625	-520.77808	318.90070	106.81433	-518.62738	274.46591	111.67886	-457.59979	96.90695	148.05467	-480.45816	107.18143	228.44284	-405.63876	47.62394	198.11319	-617.23090	41.40476	224.76692	-640.11786	53.96844	175.84671	-591.86798	41.05497	116.51804
1469	5.87200	-381.60666	1003.81549	289.16937	-543.14081	987.57465	380.43732	-521.03442	784.47943	428.37045	-554.47089	713.10669	433.92755	-588.82880	645.82367	428.83475	-627.27417	748.18713	422.32315	-605.88916	530.98999	409.40668	-625.53461	517.52838	293.68271	-483.98941	417.65671	410.92368	-443.20709	393.84497	392.56830	-517.14105	393.57202	406.21768	-485.25864	361.40622	398.01334	-324.99304	265.04166	348.03210	-369.72156	252.77606	282.86713	-252.25803	266.20657	286.86331	-338.22537	123.34238	390.22046	-390.28036	82.42091	346.96689	-368.63181	91.04890	290.53479	-394.46274	1017.17780	189.98404	-562.69012	990.64410	125.18949	-531.69745	836.37292	70.20382	-538.61438	757.53839	71.04968	-540.55634	675.03876	78.63583	-604.59827	762.02417	110.77718	-522.50122	499.23062	113.55681	-505.22870	507.98868	223.29993	-461.52731	317.40637	97.60963	-490.47324	266.06555	104.33797	-522.06512	318.64673	106.98129	-520.11841	274.36816	111.74712	-457.80325	97.00449	148.09279	-480.58606	107.19968	228.54265	-405.66263	47.67598	198.11626	-617.35675	41.39459	224.84755	-640.23615	53.97294	175.86871	-591.89160	41.04858	116.53985
1470	5.87600	-385.09454	1004.07733	288.86679	-547.52783	988.39752	380.15640	-525.68536	785.06757	428.20343	-559.51080	713.99701	433.74002	-594.38855	646.78204	428.63495	-631.97601	749.43085	421.97855	-612.13116	532.20673	409.12378	-631.64728	518.91028	293.47995	-491.34286	417.15210	410.86560	-450.76733	392.97101	392.47009	-524.81030	393.56400	405.86987	-493.40057	360.51755	397.94135	-333.89948	262.98004	347.92953	-378.68918	251.41098	282.74219	-260.97684	263.13922	286.32791	-349.62042	121.45797	389.95200	-402.32458	81.61650	346.47672	-380.26230	89.87057	290.10904	-398.07544	1017.34937	189.68616	-566.17206	990.57556	124.80042	-534.74847	836.23938	70.04167	-541.35571	757.39398	70.99770	-542.87408	674.96521	78.48434	-607.32825	761.74634	110.67229	-524.24884	499.12524	113.71715	-507.19894	507.97900	223.39792	-462.70749	317.49521	97.78638	-491.63852	266.16074	104.43605	-523.14722	318.75461	107.31214	-520.71423	274.32117	112.04052	-457.94489	97.11559	148.19348	-480.67456	107.20219	228.65367	-405.68109	47.73652	198.12439	-617.40741	41.36324	224.89050	-640.29559	53.93175	175.89670	-591.88733	41.01617	116.57577
1471	5.88000	-388.59055	1004.33221	288.63101	-551.33429	988.98431	380.05801	-530.11053	785.61108	428.07419	-564.24811	714.82440	433.54227	-599.81396	647.74841	428.33859	-636.93134	750.77277	421.68915	-618.26904	533.43182	408.87552	-637.54169	520.34546	293.28293	-498.67761	416.52530	410.74899	-458.49402	391.90161	392.45480	-532.47101	393.33575	405.50577	-501.39282	360.18109	397.56619	-342.85306	260.63120	347.88245	-387.73117	249.93732	282.73416	-269.81174	259.65790	286.48242	-361.04980	119.44108	389.69885	-414.43008	80.75356	346.06567	-392.10553	88.63873	289.75665	-401.65097	1017.50244	189.40121	-569.60815	990.44904	124.48232	-537.69476	836.11786	69.81036	-544.00421	757.25690	70.87144	-545.16711	674.89075	78.31977	-610.06079	761.44653	110.58344	-526.06683	499.06470	113.82333	-508.99448	508.05374	223.53696	-463.79892	317.75705	97.70509	-492.46054	266.08633	104.67874	-524.28986	318.71335	107.45705	-521.62854	274.25342	112.20972	-458.18396	97.25285	148.24260	-480.80966	107.24320	228.74811	-405.72183	47.83385	198.12405	-617.43311	41.35244	224.92322	-640.32312	53.91092	175.90540	-591.91132	41.03476	116.58613
1472	5.88400	-392.00153	1004.67200	288.18967	-553.73590	988.83691	379.34869	-534.34039	786.09198	427.84625	-569.24475	715.56750	433.38068	-605.24286	648.90253	428.16635	-641.79291	751.93384	421.32840	-624.33527	534.55090	408.54535	-643.39716	521.68616	293.01199	-505.95569	415.79379	410.62622	-466.10724	390.67957	392.51569	-540.11084	393.11774	405.13950	-509.40359	359.85321	397.09692	-351.83060	258.35562	347.75269	-396.77380	248.35394	282.55685	-278.39636	256.21573	286.44241	-372.60712	117.41168	389.55042	-426.68661	79.91502	345.69672	-403.92834	87.32400	289.36813	-405.03918	1017.71381	189.02721	-573.15137	990.28699	124.22845	-540.74835	835.98389	69.59946	-546.67358	757.08264	70.70367	-547.43695	674.81470	78.14484	-612.73718	761.10992	110.42798	-527.87445	498.97705	113.93950	-510.59216	508.10718	223.58507	-464.88409	317.77597	97.98180	-493.45798	266.16687	104.76555	-525.39844	318.60995	107.61279	-522.61304	274.21042	112.43736	-458.30533	97.38605	148.31448	-480.90497	107.33567	228.84868	-405.72305	47.92788	198.11346	-617.42578	41.29878	224.90152	-640.28503	53.87041	175.88109	-591.94861	41.04193	116.61613
1473	5.88800	-395.46167	1005.04187	287.93658	-557.06030	989.32947	379.09781	-538.53906	786.65051	427.76096	-574.18628	716.46277	433.20801	-610.54224	649.83484	427.91187	-646.32434	753.15106	421.03964	-630.43872	535.37811	407.89902	-649.30438	523.00818	292.82242	-513.25226	415.03204	410.47397	-473.80139	389.41376	392.61963	-547.70935	392.97702	404.87238	-517.53046	359.19415	396.71533	-360.73996	255.81935	347.84857	-405.91803	246.64194	282.39487	-287.25870	252.22305	286.70422	-384.38678	115.42867	389.20636	-439.02295	78.86415	345.26556	-416.12793	85.80832	288.61560	-408.49686	1017.95410	188.62497	-576.62842	990.19183	123.90336	-543.64410	835.81238	69.35618	-549.29321	756.93298	70.52087	-549.68518	674.73627	77.96221	-615.35901	760.78668	110.24999	-529.56317	498.81757	114.06181	-512.41138	508.03357	223.62477	-465.94733	318.08362	97.97478	-494.30826	266.14615	104.95457	-526.42188	318.55704	107.76128	-523.39124	274.16568	112.48589	-458.48193	97.55016	148.39841	-481.11380	107.45813	228.92766	-405.74957	48.07840	198.11400	-617.40259	41.30639	224.90488	-640.28491	53.83109	175.86049	-591.96844	41.07078	116.60480
1474	5.89200	-398.95084	1005.28937	287.64154	-561.15918	989.99768	378.74716	-542.70435	787.20221	427.72754	-578.95844	717.21039	433.12976	-615.86847	650.95233	427.80356	-651.32715	754.47473	420.73181	-636.42554	536.62360	407.64029	-654.92200	524.26013	292.59106	-520.48981	414.16177	410.30585	-481.26807	388.12555	392.49313	-555.26782	392.66977	404.48218	-525.61304	358.51810	396.40564	-369.71341	253.27434	347.79492	-415.10254	244.82224	282.28394	-296.20813	248.21773	286.83426	-396.07108	113.22426	389.02554	-451.64731	78.10729	344.91473	-428.26602	84.59000	288.71265	-411.88632	1018.09174	188.21811	-580.22534	990.15228	123.47300	-546.48669	835.71802	69.07080	-551.73578	756.82477	70.23318	-551.91339	674.65472	77.77458	-617.54553	760.20416	110.09224	-531.22784	498.82523	114.10742	-514.37366	508.16672	223.68376	-466.96609	318.17670	98.18008	-495.03549	266.20087	105.07590	-527.42120	318.51392	107.87153	-524.28101	274.11630	112.59343	-458.65347	97.75359	148.46219	-480.92203	107.34251	229.00163	-405.73251	48.19687	198.09116	-617.45898	41.32729	224.89479	-640.28802	53.80059	175.83446	-591.99457	41.07386	116.60338
